<svg xmlns="http://www.w3.org/2000/svg" viewBox="0 0 1200 675"><rect width="1200" height="675" fill="#0b1220"/><rect x="80" y="90" width="1040" height="495" rx="24" fill="#151f36"/><g fill="#e3cd9a"><circle cx="220" cy="255" r="70"/><circle cx="410" cy="220" r="70"/><circle cx="600" cy="255" r="70"/><circle cx="790" cy="220" r="70"/><circle cx="980" cy="255" r="70"/></g><g fill="#2a3a5c"><path d="M120 500q100-170 200 0z"/><path d="M310 485q100-170 200 0z"/><path d="M500 500q100-170 200 0z"/><path d="M690 485q100-170 200 0z"/><path d="M880 500q100-170 200 0z"/></g><g fill="#c8a25c"><rect x="195" y="335" width="50" height="95"/><rect x="385" y="300" width="50" height="95"/><rect x="575" y="335" width="50" height="95"/><rect x="765" y="300" width="50" height="95"/><rect x="955" y="335" width="50" height="95"/></g></svg>